<svg width="439" height="32" viewBox="0 0 439 32" fill="none" xmlns="http://www.w3.org/2000/svg">
<path d="M18.774 19.7C19.0843 20.3289 19.5656 20.8575 20.1628 21.2251C20.76 21.5927 21.4488 21.7843 22.15 21.778C23.568 21.778 24.474 21.069 24.474 20.09C24.474 18.917 23.543 18.501 21.983 17.818L21.127 17.451C18.658 16.399 17.017 15.081 17.017 12.295C17.017 9.72798 18.973 7.77498 22.029 7.77498C23.0209 7.70301 24.0119 7.92502 24.8783 8.41325C25.7447 8.90148 26.4479 9.63426 26.9 10.52L24.235 12.231C24.0605 11.7921 23.7566 11.4167 23.3636 11.1546C22.9707 10.8926 22.5073 10.7563 22.035 10.764C21.8292 10.7433 21.6213 10.7657 21.4246 10.8298C21.2279 10.8939 21.0467 10.9983 20.8926 11.1363C20.7384 11.2743 20.6148 11.443 20.5295 11.6314C20.4441 11.8199 20.399 12.0241 20.397 12.231C20.397 13.258 21.033 13.673 22.497 14.309L23.353 14.675C26.261 15.922 27.902 17.193 27.902 20.051C27.902 23.132 25.482 24.82 22.231 24.82C20.9647 24.9005 19.7021 24.6129 18.5956 23.9919C17.4891 23.3709 16.5859 22.4429 15.995 21.32L18.774 19.7ZM6.68602 20C7.22402 20.954 7.71302 21.76 8.88602 21.76C10.01 21.76 10.72 21.32 10.72 19.61V7.97498H14.142V19.658C14.142 23.201 12.064 24.814 9.03202 24.814C7.96102 24.872 6.89754 24.6044 5.98152 24.0464C5.0655 23.4884 4.33984 22.6662 3.90002 21.688L6.68602 20Z" fill="#D3C5C5"/>
<path d="M79.814 8.2C80.6675 8.39845 81.4431 8.84524 82.043 9.484C82.3743 9.82961 82.6622 10.2145 82.9 10.63C82.911 10.675 81.362 11.716 80.422 12.296C80.388 12.319 80.252 12.172 80.099 11.945C79.9278 11.6491 79.6843 11.4016 79.3914 11.2254C79.0984 11.0493 78.7656 10.9504 78.424 10.938C77.344 10.864 76.648 11.43 76.653 12.374C76.6437 12.6063 76.6965 12.8369 76.806 13.042C77.043 13.534 77.485 13.828 78.87 14.428C81.421 15.528 82.515 16.25 83.191 17.279C83.5729 17.9289 83.8082 18.6545 83.8802 19.4049C83.9522 20.1552 83.8593 20.9123 83.608 21.623C83.2627 22.4026 82.7151 23.0755 82.0219 23.5719C81.3287 24.0683 80.5152 24.3702 79.666 24.446C78.7634 24.5496 77.8513 24.5402 76.951 24.418C75.5717 24.1915 74.3011 23.5295 73.325 22.529C72.9564 22.1136 72.6444 21.6512 72.397 21.154C72.5011 21.0768 72.6107 21.0073 72.725 20.946C72.883 20.855 73.483 20.511 74.049 20.183L75.073 19.589L75.288 19.901C75.6491 20.4195 76.1092 20.8613 76.642 21.201C77.1794 21.4958 77.7881 21.6355 78.4003 21.6046C79.0125 21.5737 79.604 21.3734 80.109 21.026C80.3693 20.7721 80.532 20.4347 80.5686 20.0728C80.6052 19.711 80.5133 19.3479 80.309 19.047C80.032 18.647 79.466 18.318 77.859 17.621C76.5987 17.1963 75.4507 16.4921 74.501 15.561C74.0486 15.0455 73.7144 14.4373 73.522 13.779C73.3798 13.0292 73.3589 12.2614 73.46 11.505C73.6486 10.6344 74.1004 9.84295 74.754 9.2378C75.4076 8.63265 76.2315 8.24311 77.114 8.122C78.0128 8.01242 78.923 8.03872 79.814 8.2ZM71.448 9.688L71.459 11.146H66.817V24.327H63.54V11.148H58.9V9.717C58.8876 9.22631 58.9009 8.7353 58.94 8.246C58.957 8.223 61.779 8.212 65.202 8.218L71.429 8.235L71.448 9.688Z" fill="#D3C5C5"/>
<path d="M136 15.689C136 14.099 134.009 12.592 130.956 11.658C131.661 8.547 131.348 6.071 129.968 5.278C129.634 5.09072 129.255 4.99645 128.872 5.005V6.095C129.097 6.095 129.278 6.14 129.43 6.223C130.095 6.605 130.384 8.057 130.159 9.926C130.105 10.386 130.017 10.87 129.909 11.364C128.887 11.1176 127.849 10.9396 126.803 10.831C126.18 9.97129 125.5 9.15414 124.768 8.385C126.363 6.903 127.86 6.091 128.878 6.091V5C127.532 5 125.771 5.959 123.99 7.622C122.21 5.97 120.448 5.02 119.103 5.02V6.11C120.116 6.11 121.618 6.918 123.213 8.39C122.528 9.11 121.843 9.926 121.192 10.831C120.144 10.9384 119.104 11.1181 118.081 11.369C117.968 10.88 117.885 10.406 117.826 9.951C117.596 8.081 117.88 6.629 118.541 6.243C118.687 6.155 118.878 6.115 119.103 6.115V5.025C118.693 5.025 118.32 5.113 117.998 5.298C116.623 6.091 116.315 8.561 117.024 11.663C113.981 12.603 112 14.104 112 15.689C112 17.279 113.991 18.786 117.044 19.719C116.339 22.831 116.652 25.307 118.032 26.099C118.35 26.285 118.722 26.373 119.132 26.373C120.478 26.373 122.239 25.414 124.02 23.751C125.8 25.404 127.561 26.353 128.907 26.353C129.293 26.3612 129.674 26.2666 130.012 26.079C131.387 25.287 131.695 22.817 130.986 19.715C134.019 18.781 136 17.274 136 15.689ZM129.63 12.426C129.44 13.0799 129.22 13.7245 128.97 14.358C128.561 13.5628 128.112 12.7888 127.625 12.039C128.32 12.142 128.99 12.269 129.631 12.426H129.63ZM127.39 17.636C127.009 18.296 126.617 18.923 126.211 19.505C124.743 19.6344 123.267 19.636 121.799 19.51C120.957 18.3072 120.221 17.0338 119.598 15.704C120.22 14.3711 120.953 13.0932 121.79 11.884C123.257 11.7544 124.733 11.7524 126.201 11.878C126.607 12.46 127.004 13.082 127.385 13.738C127.757 14.378 128.095 15.028 128.403 15.684C128.092 16.348 127.754 16.9991 127.39 17.636ZM128.97 17C129.234 17.655 129.46 18.311 129.645 18.947C129.005 19.104 128.329 19.236 127.63 19.338C128.115 18.5814 128.562 17.8011 128.97 17ZM124.01 22.22C123.555 21.75 123.1 21.227 122.65 20.654C123.09 20.674 123.54 20.689 123.995 20.689C124.455 20.689 124.91 20.679 125.355 20.654C124.915 21.227 124.46 21.75 124.01 22.22ZM120.37 19.338C119.696 19.2403 119.026 19.1115 118.364 18.952C118.545 18.321 118.77 17.67 119.024 17.02C119.225 17.41 119.436 17.802 119.666 18.194C119.896 18.585 120.13 18.967 120.37 19.338ZM123.985 9.158C124.44 9.628 124.895 10.151 125.345 10.724C124.905 10.704 124.455 10.689 124 10.689C123.54 10.689 123.085 10.699 122.64 10.724C123.08 10.151 123.535 9.628 123.985 9.158ZM120.365 12.04C119.88 12.7949 119.433 13.5736 119.025 14.373C118.768 13.7355 118.543 13.0857 118.35 12.426C118.99 12.274 119.666 12.142 120.365 12.04ZM115.938 18.164C114.206 17.426 113.086 16.457 113.086 15.689C113.086 14.921 114.206 13.947 115.938 13.214C116.358 13.033 116.818 12.871 117.293 12.72C117.572 13.678 117.939 14.676 118.393 15.699C117.964 16.6612 117.602 17.6515 117.308 18.663C116.843 18.5192 116.386 18.3526 115.938 18.164ZM118.57 25.154C117.905 24.774 117.616 23.32 117.841 21.452C117.895 20.992 117.983 20.507 118.091 20.013C119.049 20.248 120.096 20.429 121.197 20.547C121.82 21.4067 122.5 22.2238 123.232 22.993C121.637 24.475 120.14 25.287 119.122 25.287C118.93 25.2891 118.74 25.2438 118.57 25.155V25.154ZM130.174 21.427C130.404 23.296 130.12 24.749 129.459 25.135C129.313 25.223 129.122 25.262 128.897 25.262C127.884 25.262 126.382 24.455 124.787 22.982C125.472 22.264 126.157 21.447 126.808 20.542C127.856 20.4346 128.896 20.2549 129.919 20.004C130.032 20.498 130.119 20.972 130.174 21.427ZM132.057 18.164C131.637 18.345 131.177 18.507 130.702 18.658C130.403 17.6413 130.035 16.646 129.602 15.679C130.052 14.662 130.413 13.669 130.687 12.715C131.172 12.866 131.631 13.033 132.062 13.214C133.794 13.952 134.914 14.921 134.914 15.689C134.909 16.457 133.789 17.431 132.057 18.164Z" fill="#D3C5C5"/>
<path d="M123.995 17.925C124.588 17.925 125.157 17.6894 125.576 17.2701C125.995 16.8508 126.231 16.282 126.231 15.689C126.231 15.096 125.995 14.5272 125.576 14.1079C125.157 13.6886 124.588 13.453 123.995 13.453C123.402 13.453 122.833 13.6886 122.414 14.1079C121.995 14.5272 121.759 15.096 121.759 15.689C121.759 16.282 121.995 16.8508 122.414 17.2701C122.833 17.6894 123.402 17.925 123.995 17.925Z" fill="#D3C5C5"/>
<path d="M162.15 20.78H163.72C163.754 20.7804 163.787 20.7684 163.813 20.7463C163.838 20.7242 163.855 20.6936 163.86 20.66L164.21 18.84H165.43C165.941 18.8528 166.45 18.7853 166.94 18.64C167.337 18.5088 167.699 18.29 168 18C168.27 17.757 168.497 17.4695 168.67 17.15C168.841 16.8374 168.963 16.5 169.03 16.15C169.136 15.7831 169.154 15.3963 169.083 15.021C169.012 14.6457 168.853 14.2925 168.62 13.99C168.35 13.7153 168.022 13.5032 167.661 13.3684C167.3 13.2337 166.914 13.1796 166.53 13.21H163.53C163.494 13.2116 163.46 13.2253 163.432 13.2489C163.405 13.2725 163.387 13.3046 163.38 13.34L162 20.6C161.985 20.642 161.985 20.688 162 20.73C162.019 20.7499 162.043 20.7648 162.069 20.7735C162.095 20.7822 162.123 20.7844 162.15 20.78ZM165 14.62H166C166.19 14.5944 166.384 14.6069 166.569 14.6567C166.754 14.7065 166.928 14.7926 167.08 14.91C167.25 15.09 167.28 15.43 167.19 15.91C167.14 16.3394 166.938 16.7367 166.62 17.03C166.224 17.2808 165.757 17.3965 165.29 17.36H164.49L165 14.62ZM174.8 13.67C174.259 13.272 173.588 13.0901 172.92 13.16H171.73L172.06 11.4C172.07 11.3797 172.075 11.3575 172.075 11.335C172.075 11.3125 172.07 11.2903 172.06 11.27C172.024 11.257 171.986 11.257 171.95 11.27H170.38C170.346 11.2697 170.313 11.2816 170.287 11.3037C170.262 11.3258 170.245 11.3564 170.24 11.39L168.86 18.66C168.85 18.6785 168.845 18.6991 168.845 18.72C168.845 18.7409 168.85 18.7615 168.86 18.78C168.872 18.7985 168.888 18.8136 168.907 18.8241C168.927 18.8346 168.948 18.8401 168.97 18.84H170.51C170.545 18.8401 170.58 18.8267 170.606 18.8026C170.632 18.7785 170.647 18.7454 170.65 18.71L171.42 14.64H172.53C172.98 14.64 173.14 14.74 173.19 14.8C173.231 14.8983 173.252 15.0036 173.252 15.11C173.252 15.2164 173.231 15.3217 173.19 15.42L172.58 18.66C172.57 18.6785 172.565 18.6991 172.565 18.72C172.565 18.7409 172.57 18.7615 172.58 18.78C172.592 18.7979 172.609 18.8126 172.628 18.823C172.647 18.8334 172.668 18.8392 172.69 18.84H174.25C174.286 18.8384 174.32 18.8247 174.348 18.8011C174.375 18.7775 174.393 18.7454 174.4 18.71L175.04 15.31C175.143 15.0389 175.175 14.7458 175.133 14.4588C175.091 14.1717 174.977 13.9002 174.8 13.67ZM179.32 13.16H176.19C176.172 13.1586 176.153 13.1609 176.136 13.1667C176.118 13.1725 176.102 13.1817 176.088 13.1938C176.074 13.2059 176.063 13.2206 176.054 13.2371C176.046 13.2536 176.041 13.2716 176.04 13.29L174.58 20.6C174.571 20.6205 174.566 20.6426 174.566 20.665C174.566 20.6874 174.571 20.7095 174.58 20.73C174.593 20.746 174.61 20.7588 174.629 20.7675C174.648 20.7761 174.669 20.7804 174.69 20.78H176.32C176.356 20.7829 176.391 20.7721 176.419 20.7498C176.447 20.7275 176.465 20.6954 176.47 20.66L176.84 18.84H178.11C178.637 18.8516 179.163 18.7842 179.67 18.64C180.107 18.5185 180.51 18.2997 180.85 18C181.129 17.7577 181.366 17.4704 181.55 17.15C181.724 16.8379 181.849 16.5005 181.92 16.15C182.029 15.7827 182.048 15.3946 181.975 15.0186C181.901 14.6425 181.739 14.2897 181.5 13.99C181.217 13.7036 180.876 13.4813 180.5 13.3381C180.124 13.1949 179.722 13.1342 179.32 13.16ZM179.94 15.93C179.88 16.363 179.667 16.7603 179.34 17.05C178.93 17.3019 178.45 17.4174 177.97 17.38H177.17L177.71 14.62H178.71C179.11 14.571 179.513 14.6746 179.84 14.91C180 15.09 180 15.43 179.94 15.93Z" fill="#D3C5C5"/>
<path d="M227.891 11.788C228.614 13.1104 228.992 14.5938 228.99 16.101C228.99 17.6742 228.578 19.22 227.793 20.5837C227.009 21.9474 225.88 23.0813 224.52 23.872L227.266 15.933C227.779 14.651 227.95 13.624 227.95 12.714C227.95 12.4043 227.931 12.095 227.891 11.788ZM221.24 11.875C221.583 11.8581 221.925 11.8287 222.266 11.787C222.751 11.724 222.694 11.012 222.21 11.038C222.21 11.038 220.747 11.15 219.81 11.15C218.923 11.15 217.435 11.025 217.435 11.025C216.948 11.001 216.885 11.738 217.374 11.763C217.374 11.763 217.823 11.815 218.312 11.838L219.711 15.676L217.736 21.575L214.462 11.851C214.805 11.8337 215.148 11.806 215.49 11.768C215.977 11.705 215.92 10.993 215.435 11.021C215.435 11.021 213.98 11.136 213.04 11.136C212.873 11.136 212.675 11.129 212.465 11.123C214.093 8.72595 216.862 7.11295 220 7.11295C222.341 7.11295 224.471 8.00695 226.071 9.47295C226.033 9.47095 225.995 9.46495 225.954 9.46495C225.071 9.46495 224.444 10.235 224.444 11.061C224.444 11.802 224.871 12.43 225.327 13.169C225.67 13.77 226.069 14.539 226.069 15.65C226.069 16.413 225.774 17.312 225.384 18.549L224.488 21.536L221.238 11.861L221.24 11.875ZM220 25.087C219.14 25.0878 218.285 24.9652 217.46 24.723L220.157 16.885L222.92 24.457C222.941 24.501 222.962 24.542 222.985 24.581C222.026 24.9173 221.017 25.0891 220 25.089V25.087ZM211.01 16.101C211.009 14.8404 211.274 13.5938 211.788 12.443L216.075 24.192C214.556 23.4546 213.276 22.3048 212.38 20.8739C211.485 19.4431 211.01 17.789 211.01 16.101ZM220 6.10095C214.487 6.10095 210 10.588 210 16.101C210 21.614 214.487 26.101 220 26.101C225.513 26.101 230 21.614 230 16.101C230 10.588 225.513 6.10095 220 6.10095Z" fill="#D3C5C5"/>
<path d="M275.275 28.2499C275.147 28.2499 275.019 28.2124 274.903 28.1499L273.733 27.4374C273.556 27.3374 273.641 27.2999 273.702 27.2812C273.934 27.1999 273.983 27.1812 274.233 27.0312C274.257 27.0187 274.293 27.0249 274.318 27.0374L275.22 27.5874C275.25 27.6062 275.299 27.6062 275.329 27.5874L278.852 25.4999C278.882 25.4812 278.906 25.4437 278.906 25.3999V21.2312C278.906 21.1874 278.888 21.1499 278.852 21.1312L275.329 19.0499C275.299 19.0312 275.256 19.0312 275.22 19.0499L271.698 21.1312C271.661 21.1499 271.643 21.1937 271.643 21.2312V25.3999C271.643 25.4374 271.667 25.4749 271.698 25.4937L272.66 26.0624C273.184 26.3312 273.507 26.0124 273.507 25.6999V21.5812C273.507 21.5249 273.55 21.4749 273.611 21.4749H274.056C274.111 21.4749 274.159 21.5187 274.159 21.5812V25.6999C274.159 26.4187 273.782 26.8249 273.117 26.8249C272.916 26.8249 272.752 26.8249 272.307 26.5999L271.381 26.0562C271.155 25.9187 271.009 25.6687 271.009 25.3999V21.2312C271.009 20.9624 271.149 20.7062 271.381 20.5749L274.903 18.4874C275.128 18.3562 275.421 18.3562 275.64 18.4874L279.162 20.5749C279.388 20.7124 279.534 20.9624 279.534 21.2312V25.3999C279.534 25.6687 279.394 25.9249 279.162 26.0562L275.64 28.1437C275.537 28.2124 275.409 28.2499 275.275 28.2499ZM278.12 24.1374C278.12 23.3562 277.608 23.1499 276.524 22.9999C275.427 22.8499 275.317 22.7749 275.317 22.5124C275.317 22.2937 275.409 22.0062 276.219 22.0062C276.944 22.0062 277.212 22.1687 277.322 22.6687C277.334 22.7187 277.371 22.7499 277.42 22.7499H277.877C277.907 22.7499 277.931 22.7374 277.95 22.7187C277.968 22.6937 277.98 22.6687 277.974 22.6374C277.901 21.7749 277.346 21.3749 276.219 21.3749C275.214 21.3749 274.616 21.8124 274.616 22.5374C274.616 23.3312 275.214 23.5437 276.176 23.6437C277.328 23.7624 277.42 23.9312 277.42 24.1624C277.42 24.5687 277.103 24.7374 276.359 24.7374C275.427 24.7374 275.22 24.4999 275.153 24.0249C275.147 23.9749 275.104 23.9374 275.049 23.9374H274.592C274.537 23.9374 274.488 23.9812 274.488 24.0437C274.488 24.6499 274.811 25.3749 276.353 25.3749C277.48 25.3749 278.12 24.9249 278.12 24.1374ZM281.441 21.0062C281.441 21.3874 281.137 21.6999 280.765 21.6999C280.393 21.6999 280.089 21.3874 280.089 21.0062C280.089 20.6124 280.405 20.3124 280.765 20.3124C281.131 20.3062 281.441 20.6124 281.441 21.0062ZM281.332 21.0062C281.332 20.6812 281.076 20.4249 280.759 20.4249C280.448 20.4249 280.192 20.6812 280.192 21.0062C280.192 21.3312 280.448 21.5937 280.759 21.5937C281.076 21.5874 281.332 21.3249 281.332 21.0062ZM281.058 21.3937H280.899C280.893 21.3562 280.869 21.1562 280.869 21.1499C280.856 21.1062 280.844 21.0812 280.789 21.0812H280.655V21.3937H280.509V20.6124H280.771C280.863 20.6124 281.039 20.6124 281.039 20.8187C281.039 20.9624 280.948 20.9937 280.893 21.0124C280.997 21.0187 281.003 21.0874 281.021 21.1874C281.027 21.2499 281.039 21.3562 281.058 21.3937ZM280.887 20.8437C280.887 20.7374 280.814 20.7374 280.777 20.7374H280.655V20.9562H280.771C280.869 20.9562 280.887 20.8874 280.887 20.8437ZM264.367 11.9374C264.367 11.7687 264.281 11.6187 264.141 11.5374L260.406 9.3312C260.345 9.2937 260.272 9.27495 260.199 9.2687H260.162C260.089 9.2687 260.022 9.2937 259.955 9.3312L256.225 11.5374C256.085 11.6187 256 11.7749 256 11.9374L256.006 17.8749C256.006 17.9562 256.049 18.0312 256.116 18.0749C256.183 18.1187 256.268 18.1187 256.341 18.0749L258.559 16.7687C258.7 16.6812 258.785 16.5312 258.785 16.3687V13.5937C258.785 13.4312 258.87 13.2749 259.01 13.1937L259.955 12.6374C260.028 12.5937 260.101 12.5749 260.18 12.5749C260.26 12.5749 260.339 12.5937 260.406 12.6374L261.35 13.1937C261.49 13.2749 261.576 13.4312 261.576 13.5937V16.3687C261.576 16.5312 261.661 16.6874 261.801 16.7687L264.019 18.0749C264.086 18.1187 264.178 18.1187 264.245 18.0749C264.312 18.0374 264.355 17.9562 264.355 17.8749L264.367 11.9374ZM284.793 5.4562V16.4812C284.793 16.6437 284.708 16.7999 284.567 16.8812L280.832 19.0937C280.692 19.1749 280.521 19.1749 280.381 19.0937L276.646 16.8812C276.505 16.7999 276.42 16.6437 276.42 16.4812V12.0562C276.42 11.8937 276.505 11.7374 276.646 11.6562L280.381 9.4437C280.521 9.36245 280.692 9.36245 280.832 9.4437L281.764 9.9937C281.868 10.0562 282.002 9.97495 282.002 9.8562V3.9812C282.002 3.8062 282.185 3.6937 282.337 3.7812L284.561 5.0562C284.702 5.1312 284.793 5.28745 284.793 5.4562ZM281.99 13.5124C281.99 13.4687 281.965 13.4312 281.935 13.4124L280.655 12.6499C280.619 12.6312 280.576 12.6312 280.54 12.6499L279.26 13.4124C279.223 13.4312 279.205 13.4687 279.205 13.5124V15.0312C279.205 15.0749 279.229 15.1124 279.26 15.1312L280.54 15.8874C280.576 15.9062 280.619 15.9062 280.649 15.8874L281.929 15.1312C281.965 15.1124 281.984 15.0749 281.984 15.0312V13.5124H281.99ZM294.775 13.4687C294.915 13.3874 295 13.2312 295 13.0687V11.9999C295 11.8374 294.915 11.6812 294.775 11.5999L291.063 9.38745C290.923 9.3062 290.753 9.3062 290.612 9.38745L286.877 11.5999C286.737 11.6812 286.652 11.8374 286.652 11.9999V16.4249C286.652 16.5937 286.737 16.7437 286.877 16.8249L290.588 18.9937C290.722 19.0749 290.893 19.0749 291.033 18.9937L293.275 17.7124C293.428 17.6249 293.428 17.3999 293.275 17.3124L289.516 15.0999C289.443 15.0562 289.4 14.9812 289.4 14.8999V13.5124C289.4 13.4312 289.443 13.3562 289.516 13.3124L290.686 12.6187C290.753 12.5749 290.844 12.5749 290.911 12.6187L292.081 13.3124C292.148 13.3562 292.197 13.4312 292.197 13.5124V14.5999C292.197 14.7749 292.386 14.8874 292.538 14.7999L294.775 13.4687ZM290.064 13.6874C290.04 13.7062 290.021 13.7312 290.021 13.7624V14.6124C290.021 14.6437 290.04 14.6749 290.064 14.6874L290.783 15.1124C290.807 15.1312 290.844 15.1312 290.868 15.1124L291.588 14.6874C291.612 14.6687 291.63 14.6437 291.63 14.6124V13.7624C291.63 13.7312 291.612 13.6999 291.588 13.6874L290.868 13.2624C290.844 13.2437 290.807 13.2437 290.783 13.2624L290.064 13.6874ZM274.574 16.4062V12.0062C274.574 11.8437 274.476 11.6874 274.336 11.6062L270.613 9.4062C270.485 9.3312 270.308 9.3187 270.162 9.4062L266.439 11.6062C266.298 11.6874 266.201 11.8374 266.201 12.0062V16.4062C266.201 16.5812 266.317 16.7312 266.445 16.8062L270.174 19.0062C270.32 19.0937 270.491 19.0874 270.625 19.0062L274.342 16.8062C274.452 16.7437 274.531 16.6374 274.562 16.5124C274.568 16.4812 274.574 16.4437 274.574 16.4062ZM270.046 8.59995L269.997 8.6312H270.064L270.046 8.59995ZM274.69 16.7374L274.665 16.6937V16.7499L274.69 16.7374Z" fill="#D3C5C5"/>
<path d="M326.502 4H329.08V5.078H327.58V6.156H329.08V7.234H326.502V4Z" fill="#D3C5C5"/>
<path d="M329.595 4H332.174V4.938H330.674V5.125H332.174V7.281H329.595V6.297H331.095V6.109H329.595V4Z" fill="#D3C5C5"/>
<path d="M332.69 4H335.267V4.938H333.767V5.125H335.267V7.281H332.69V6.297H334.19V6.109H332.69V4Z" fill="#D3C5C5"/>
<path fill-rule="evenodd" clip-rule="evenodd" d="M330.991 28L324.047 26.072L322 8.71704H340L337.954 26.07L330.991 28ZM326.047 16.573L326.238 18.701H333.615L333.368 21.461L330.994 22.103H330.992L328.622 21.463L328.47 19.766H326.333L326.631 23.108L330.991 24.318L335.358 23.108L335.89 17.144L335.942 16.573L336.326 12.264H325.664L325.858 14.393H333.994L333.8 16.573H326.047Z" fill="#D3C5C5"/>
<path d="M372.08 4H373.162V5.069H374.152V4H375.234V7.236H374.152V6.153H373.162V7.236H372.081V4H372.08Z" fill="#D3C5C5"/>
<path d="M376.656 5.073H375.704V4H378.691V5.073H377.738V7.236H376.656V5.073Z" fill="#D3C5C5"/>
<path d="M379.165 4H380.293L380.987 5.137L381.68 4H382.808V7.236H381.731V5.632L380.987 6.783H380.968L380.223 5.633V7.236H379.165V4Z" fill="#D3C5C5"/>
<path d="M383.346 4H384.429V6.167H385.949V7.237H383.346V4Z" fill="#D3C5C5"/>
<path fill-rule="evenodd" clip-rule="evenodd" d="M372.046 26.072L370 8.71704H388L385.953 26.07L378.99 28L372.046 26.072ZM376.183 16.572L375.989 14.392H384.134L384.324 12.264H373.664L374.238 18.701H381.615L381.368 21.461L378.994 22.103H378.992L376.622 21.463L376.47 19.766H374.332L374.63 23.108L378.99 24.318L383.357 23.108L383.889 17.144L383.941 16.573H376.183V16.572Z" fill="#D3C5C5"/>
<path d="M427 4C433.6 4 439 9.4 439 16C439 22.6 433.6 28 427 28C420.4 28 415 22.6 415 16C415 9.4 420.4 4 427 4ZM424.6 19.975C424.75 20.65 424.75 21.25 424.6 21.775L424.525 22C424.525 22.075 424.45 22.15 424.45 22.15C424.3 22.45 424.15 22.675 423.925 22.975C423.25 23.725 422.275 24.025 421.825 23.8C421.375 23.575 421.6 22.45 422.425 21.625C423.325 20.725 424.525 20.125 424.525 20.125L424.6 19.975ZM434.5 9.1C433.975 7 430.45 6.25 427.075 7.45C425.125 8.2 422.95 9.325 421.375 10.75C419.5 12.475 419.275 13.975 419.35 14.575C419.8 16.75 422.8 18.25 424.075 19.3C423.7 19.45 421 20.8 420.4 22.225C419.725 23.725 420.475 24.775 421 24.85C422.575 25.3 424.225 24.475 425.05 23.2C425.875 21.925 425.8 20.35 425.425 19.525C426.008 19.3448 426.629 19.319 427.225 19.45C429.325 19.675 429.775 21.025 429.625 21.55C429.475 22.075 429.1 22.375 428.95 22.525C428.8 22.6 428.725 22.675 428.8 22.675C428.8 22.75 428.875 22.75 429.025 22.75C429.175 22.75 430.15 22.3 430.15 21.25C430.225 19.975 428.95 18.55 426.775 18.55C425.875 18.55 425.275 18.625 424.9 18.775C424.9 18.7 424.825 18.7 424.825 18.7C423.475 17.275 421 16.225 421.075 14.275C421.075 13.6 421.375 11.725 425.875 9.475C429.55 7.6 432.55 8.125 433.075 9.25C433.825 10.825 431.5 13.825 427.675 14.275C426.175 14.425 425.425 13.9 425.275 13.675C425.05 13.45 425.05 13.45 424.975 13.45C424.825 13.525 424.9 13.675 424.975 13.825C425.125 14.125 425.575 14.65 426.4 14.95C427.075 15.175 428.8 15.325 430.9 14.5C433.225 13.6 435.025 11.125 434.5 9.025V9.1Z" fill="#D3C5C5"/>
</svg>
