<svg width="44" height="23" viewBox="0 0 44 23" fill="none" xmlns="http://www.w3.org/2000/svg">
<path d="M4.852 8.896C5.356 8.07467 6.00933 7.43067 6.812 6.964C7.63333 6.49733 8.56667 6.264 9.612 6.264V10.38H8.576C7.344 10.38 6.41067 10.6693 5.776 11.248C5.16 11.8267 4.852 12.8347 4.852 14.272V22H0.932V6.488H4.852V8.896ZM10.2443 14.188C10.2443 12.62 10.5523 11.2293 11.1683 10.016C11.803 8.80267 12.6523 7.86933 13.7163 7.216C14.799 6.56267 16.003 6.236 17.3283 6.236C18.4856 6.236 19.4936 6.46933 20.3523 6.936C21.2296 7.40267 21.9296 7.99067 22.4523 8.7V6.488H26.4003V22H22.4523V19.732C21.9483 20.46 21.2483 21.0667 20.3523 21.552C19.475 22.0187 18.4576 22.252 17.3003 22.252C15.9936 22.252 14.799 21.916 13.7163 21.244C12.6523 20.572 11.803 19.6293 11.1683 18.416C10.5523 17.184 10.2443 15.7747 10.2443 14.188ZM22.4523 14.244C22.4523 13.292 22.2656 12.48 21.8923 11.808C21.519 11.1173 21.015 10.5947 20.3803 10.24C19.7456 9.86667 19.0643 9.68 18.3363 9.68C17.6083 9.68 16.9363 9.85733 16.3203 10.212C15.7043 10.5667 15.2003 11.0893 14.8083 11.78C14.435 12.452 14.2483 13.2547 14.2483 14.188C14.2483 15.1213 14.435 15.9427 14.8083 16.652C15.2003 17.3427 15.7043 17.8747 16.3203 18.248C16.955 18.6213 17.627 18.808 18.3363 18.808C19.0643 18.808 19.7456 18.6307 20.3803 18.276C21.015 17.9027 21.519 17.38 21.8923 16.708C22.2656 16.0173 22.4523 15.196 22.4523 14.244ZM33.1489 1.28V22H29.2289V1.28H33.1489ZM43.1338 9.708H40.4178V22H36.4418V9.708H34.6778V6.488H36.4418V5.704C36.4418 3.8 36.9832 2.4 38.0658 1.504C39.1485 0.607999 40.7818 0.187999 42.9658 0.244V3.548C42.0138 3.52933 41.3512 3.688 40.9778 4.024C40.6045 4.36 40.4178 4.96667 40.4178 5.844V6.488H43.1338V9.708Z" fill="#0F1012"/>
</svg>
